<svg xmlns="http://www.w3.org/2000/svg" viewBox="0 0 900 1200">
  <defs>
    <pattern id="hatch" width="10" height="10" patternUnits="userSpaceOnUse" patternTransform="rotate(45)">
      <line x1="0" y1="0" x2="0" y2="10" stroke="#f2efe6" stroke-width="1" opacity="0.25" />
    </pattern>
  </defs>
  <rect width="900" height="1200" fill="#050505" />
  <rect width="900" height="1200" fill="url(#hatch)" opacity="0.35" />
  <circle cx="680" cy="220" r="90" fill="none" stroke="#f2efe6" stroke-width="4" opacity="0.8" />
  <path d="M0 820 L140 640 L240 700 L360 520 L500 740 L660 580 L900 790" fill="none" stroke="#f2efe6" stroke-width="7" />
  <path d="M80 940 L220 760 L360 940" fill="none" stroke="#f2efe6" stroke-width="5" />
  <path d="M520 520 L620 420 L720 520" fill="none" stroke="#f2efe6" stroke-width="5" />
  <rect x="610" y="380" width="100" height="180" fill="none" stroke="#f2efe6" stroke-width="6" />
  <path d="M610 380 L660 320 L710 380" fill="none" stroke="#f2efe6" stroke-width="6" />
  <path d="M80 1080 L900 1080" stroke="#f2efe6" stroke-width="4" />
  <path d="M120 1030 L150 1080" stroke="#f2efe6" stroke-width="3" />
  <path d="M180 1020 L210 1080" stroke="#f2efe6" stroke-width="3" />
</svg>
